<svg width="252" height="206" xmlns="http://www.w3.org/2000/svg" xml:space="preserve" version="1.1">

 <g>
  <title>Layer 1</title>
  <g id="svg_4"/>
  <g id="svg_5"/>
  <g id="svg_6"/>
  <g id="svg_7"/>
  <g id="svg_8"/>
  <g id="svg_9"/>
  <g id="svg_10"/>
  <g id="svg_11"/>
  <g id="svg_12"/>
  <g id="svg_13"/>
  <g id="svg_14"/>
  <g id="svg_15"/>
  <g id="svg_16"/>
  <g id="svg_17"/>
  <g id="svg_18"/>
  <path id="svg_19" d="m1.5,24c0,-11.41096 9.58904,-21 21,-21l207,0c11.41096,0 21,9.58904 21,21l0,158c0,11.41096 -9.58904,21 -21,21l-207,0c-11.41096,0 -21,-9.58904 -21,-21l0,-158z" opacity="undefined" stroke-width="5" stroke="#000000" fill-opacity="0" fill="#000000"/>
  <path id="svg_3" d="m164.612,64.38812c-3.515,-3.515 -9.213,-3.515 -12.728,0l-25.884,25.884l-25.885,-25.885c-3.515,-3.515 -9.213,-3.515 -12.728,0c-3.515,3.515 -3.515,9.213 0,12.728l25.885,25.885l-25.885,25.885c-3.515,3.515 -3.515,9.213 0,12.728c1.757,1.757 4.061,2.636 6.364,2.636s4.606,-0.879 6.364,-2.636l25.885,-25.885l25.885,25.885c1.757,1.757 4.061,2.636 6.364,2.636s4.606,-0.879 6.364,-2.636c3.515,-3.515 3.515,-9.213 0,-12.728l-25.885,-25.885l25.885,-25.885c3.514,-3.514 3.514,-9.213 -0.001,-12.727z"/>
 </g>
</svg>