<?xml version="1.0" encoding="utf-8"?><svg version="1.1" id="Layer_1" xmlns="http://www.w3.org/2000/svg" xmlns:xlink="http://www.w3.org/1999/xlink" x="0px" y="0px" viewBox="0 0 108.05 122.88" style="enable-background:new 0 0 108.05 122.88" xml:space="preserve"><style type="text/css"><![CDATA[
	.st0{fill-rule:evenodd;clip-rule:evenodd;}
]]></style><g><path class="st0" d="M2.89,56.04h14.93v-1.08V37.12c0-10.21,4.18-19.48,10.9-26.21V10.9C35.44,4.18,44.73,0,54.94,0 c10.2,0,19.48,4.18,26.21,10.9l0.01,0.01c6.72,6.72,10.9,16,10.9,26.21v17.84v1.07l13.11,0c1.59,0,2.89,1.3,2.89,2.89v61.06 c0,1.59-1.3,2.89-2.89,2.89H2.89c-1.59,0-2.89-1.3-2.89-2.89V58.93C0,57.34,1.3,56.04,2.89,56.04L2.89,56.04L2.89,56.04z M25.79,85.79c4.37,0,7.92,3.54,7.92,7.91c0,4.37-3.54,7.92-7.92,7.92c-4.37,0-7.92-3.54-7.92-7.92 C17.87,89.33,21.41,85.79,25.79,85.79L25.79,85.79z M82.27,85.79c4.37,0,7.91,3.54,7.91,7.91c0,4.37-3.54,7.92-7.91,7.92 c-4.37,0-7.92-3.54-7.92-7.92C74.35,89.33,77.9,85.79,82.27,85.79L82.27,85.79z M54.03,85.79c4.37,0,7.91,3.54,7.91,7.91 c0,4.37-3.54,7.92-7.91,7.92c-4.37,0-7.92-3.54-7.92-7.92C46.11,89.33,49.65,85.79,54.03,85.79L54.03,85.79z M15.59,79.96h76.86 c4.1,0,7.45,3.35,7.45,7.44V100c0,4.09-3.35,7.44-7.45,7.44H15.59c-4.09,0-7.44-3.35-7.44-7.44V87.4 C8.15,83.31,11.5,79.96,15.59,79.96L15.59,79.96z M32.24,56.04h45.39v-1.08V36.91c0-6.24-2.55-11.92-6.66-16.03l0,0 c-4.11-4.11-9.79-6.67-16.02-6.67c-6.24,0-11.92,2.55-16.03,6.66c-4.11,4.11-6.66,9.79-6.66,16.03v18.05L32.24,56.04L32.24,56.04 L32.24,56.04z"/></g></svg>