<?xml version="1.0" encoding="iso-8859-1"?>
<!-- Generator: Adobe Illustrator 19.0.0, SVG Export Plug-In . SVG Version: 6.00 Build 0)  -->
<svg version="1.1" id="Capa_1" xmlns="http://www.w3.org/2000/svg" xmlns:xlink="http://www.w3.org/1999/xlink" x="0px" y="0px"
	 viewBox="0 0 490.016 490.016" style="enable-background:new 0 0 490.016 490.016;" xml:space="preserve">
<g>
	<g>
		<path d="M348.6,174.533c0-96.4-78-174.5-174.3-174.5S0,78.133,0,174.533s78,174.5,174.3,174.5S348.6,270.833,348.6,174.533z
			 M174.3,309.933c-74.7,0-135.3-60.6-135.3-135.4c0-74.9,60.6-135.5,135.3-135.5s135.3,60.7,135.3,135.5
			C309.7,249.333,249.1,309.933,174.3,309.933z"/>
		<path d="M450.6,329.933l-102.3-69c-18.7,37.6-49.3,68.3-86.7,87.3l68.5,102.7c30.3,45.9,95.6,52.5,134.5,13.6
			S496.9,360.733,450.6,329.933z"/>
		<path d="M174.3,60.133c-63.1,0-114.2,51.2-114.2,114.3s51.1,114.3,114.2,114.3s114.2-51.2,114.2-114.3S237.4,60.133,174.3,60.133z
			 M133.8,149.933v20.6l-33.8-33.8l33.8-33.9v20.6h45.1v26.1h-45.1L133.8,149.933L133.8,149.933z M214.7,245.733v-20.7H170v-26h45.1
			v-20.6l33.8,33.9L214.7,245.733z"/>
	</g>
</g>
<g>
</g>
<g>
</g>
<g>
</g>
<g>
</g>
<g>
</g>
<g>
</g>
<g>
</g>
<g>
</g>
<g>
</g>
<g>
</g>
<g>
</g>
<g>
</g>
<g>
</g>
<g>
</g>
<g>
</g>
</svg>
