<?xml version="1.0" encoding="utf-8"?>
<!-- Svg Vector Icons : http://www.onlinewebfonts.com/icon -->
<!DOCTYPE svg PUBLIC "-//W3C//DTD SVG 1.1//EN" "http://www.w3.org/Graphics/SVG/1.1/DTD/svg11.dtd">
<svg version="1.1" xmlns="http://www.w3.org/2000/svg" xmlns:xlink="http://www.w3.org/1999/xlink" x="0px" y="0px" viewBox="0 0 1000 1000" enable-background="new 0 0 1000 1000" xml:space="preserve">
<metadata> Svg Vector Icons : http://www.onlinewebfonts.com/icon </metadata>
<g><g><path d="M500,10C229.8,10,10,229.8,10,500c0,270.2,219.8,490,490,490c270.2,0,490-219.8,490-490C990,229.8,770.2,10,500,10z M500,913.4C272.1,913.4,86.6,727.9,86.6,500S272.1,86.6,500,86.6c227.9,0,413.4,185.4,413.4,413.4S727.9,913.4,500,913.4z"/><path d="M264.1,519.8L352,465c15-9.3,11.2-32.1-6-36.1l-33.8-7.8c30.2-76.1,104.6-128.8,190-128.8c83.9,0,158.4,50.3,189.7,128.1c7.9,19.6,30.2,29.1,49.9,21.2c19.6-7.9,29.1-30.2,21.2-49.9c-43.1-107-145.5-176.1-260.8-176.1c-121.4,0-226.6,77.5-265.2,188l-33.7-7.8c-17.2-4-30.6,14.8-21.3,29.8l54.8,87.9C242.6,522.8,254.8,525.6,264.1,519.8z"/><path d="M818.2,589.7l-53.2-88.9c-5.6-9.4-17.8-12.4-27.1-6.8L649,547.1c-15.1,9-11.8,31.9,5.3,36.2l34,8.6C654.5,662.6,582,709.1,500.2,707.6c-80.6-1.5-153-50.3-184.6-124.6c-8.3-19.5-30.8-28.6-50.3-20.3c-19.5,8.3-28.6,30.8-20.3,50.3C288.4,715,388,782.2,498.8,784.3c1.8,0,3.5,0,5.2,0c115.9,0,217.1-69.8,259.6-173.5l32.7,8.2C813.5,623.4,827.3,604.9,818.2,589.7z"/></g><g></g><g></g><g></g><g></g><g></g><g></g><g></g><g></g><g></g><g></g><g></g><g></g><g></g><g></g><g></g></g>
</svg>