<?xml version="1.0" encoding="utf-8"?>
<!-- Svg Vector Icons : http://www.onlinewebfonts.com/icon -->
<!DOCTYPE svg PUBLIC "-//W3C//DTD SVG 1.1//EN" "http://www.w3.org/Graphics/SVG/1.1/DTD/svg11.dtd">
<svg version="1.1" xmlns="http://www.w3.org/2000/svg" xmlns:xlink="http://www.w3.org/1999/xlink" x="0px" y="0px" viewBox="0 0 1000 1000" enable-background="new 0 0 1000 1000" xml:space="preserve">
<metadata> Svg Vector Icons : http://www.onlinewebfonts.com/icon </metadata>
<g><path d="M955.4,480.1c-16.3-32.6-36.7-61.1-59.1-85.6c-22.4-24.4-46.9-42.8-73.4-59.1c-2-14.3-6.1-28.5-10.2-40.8c-4.1-18.3-10.2-34.6-18.4-51c-26.5-59.1-69.3-106-118.2-138.6c-53-34.6-114.1-55-175.3-57.1h-2c-63.2,2-122.3,22.4-175.3,57.1c-48.9,32.6-91.7,79.5-118.2,138.6c-8.1,16.3-14.3,32.6-18.3,51c-4.1,12.2-8.1,26.5-10.2,40.8c-26.5,16.3-50.9,34.6-73.3,59.1c-22.4,24.4-42.8,53-59.1,85.6C9.9,555.5,1.8,633,18.1,702.3c10.2,46.9,32.6,91.7,61.1,128.4c30.6,38.7,69.3,69.3,114.1,89.7c63.2,30.6,138.6,40.8,222.1,22.4c8.2-2,16.3-14.3,16.3-22.4V520.9c0-10.2-10.2-22.4-22.4-22.4h-106l195.6-214l195.6,214h-104c-12.2,0-22.4,12.2-22.4,22.4v399.4c0,8.1,8.2,20.4,16.3,22.4c83.6,18.3,158.9,8.2,222.1-22.4c44.8-20.4,83.5-51,114.1-89.7c28.5-36.7,50.9-81.5,61.1-128.4C998.2,633,990.1,555.5,955.4,480.1 M937.1,692.1c-10.2,40.8-28.5,77.4-53,110c-26.5,32.6-59.1,59.1-95.8,77.4c-50.9,22.4-110,32.6-175.3,22.4V545.4h134.5c20.4,0,30.6-24.5,18.4-38.7l-248.6-271c-4.1-6.1-10.2-8.1-18.3-8.1c-6.1,0-12.2,2-16.3,8.1l-248.6,271c-12.2,14.3-2,38.7,18.3,38.7h134.5V902c-65.2,10.2-124.3,0-175.2-22.4c-36.7-18.4-69.3-44.8-95.8-77.4c-26.5-32.6-44.8-69.3-53-110C48.7,633,54.8,565.7,87.3,500.5c12.2-28.5,30.6-53,51-75.4c20.4-22.4,44.8-40.8,71.3-55c4.1-2,12.2-12.2,12.2-18.4c2-14.3,4.1-30.6,8.2-44.8c4.1-16.3,10.2-30.6,16.3-44.8c24.5-48.9,61.1-89.7,103.9-118.2C395.1,113.4,446,97.1,499,95c55,2,106,18.3,150.8,48.9c42.8,28.5,79.4,69.3,103.9,118.2c6.1,14.3,12.2,28.5,16.3,44.8c4.1,14.3,6.1,30.6,8.1,44.8c0,6.1,8.2,16.3,12.2,18.4c26.5,14.3,51,32.6,71.3,55c20.4,22.4,38.7,46.9,50.9,75.4C945.2,565.7,949.3,633,937.1,692.1"/></g>
</svg>